# xmcd CD database file
#
# Track frame offsets:
#	150
#	13621
#	25966
#	38687
#	51235
#	64524
#	74796
#	87392
#	98759
#	112867
#
# Disc length: 1651 seconds
#
# Revision: 0
# Processed by: cddbd v1.5.1PL2 Copyright (c) Steve Scherf et al.
# Submitted via: CDex 1.51
#
DISCID=7e06710a
DTITLE=Hank Williams - Ramblin' Man
DYEAR=2004
DGENRE=Country
TTITLE0=Hey Good Looking
TTITLE1=Take These Chains From My Heart
TTITLE2=I'm So Lonesome I Could Cry
TTITLE3=Your Cheatin' Heart
TTITLE4=Jambalaya (On The Bayou)
TTITLE5=Honky Tonk Blues
TTITLE6=Cold Cold Heart
TTITLE7=I Heard The Lonesome Whistle
TTITLE8=Ramblin' Man
TTITLE9=I'll Never Get Out Of This World Alive
EXTD=YEAR: 2004
EXTT0=
EXTT1=
EXTT2=
EXTT3=
EXTT4=
EXTT5=
EXTT6=
EXTT7=
EXTT8=
EXTT9=
PLAYORDER=
